<svg xmlns="http://www.w3.org/2000/svg" xmlns:xlink="http://www.w3.org/1999/xlink" viewBox="0 0 438 438"><defs><style>.cls-1,.cls-2,.cls-3,.cls-4{fill:none;stroke-miterlimit:10;}.cls-1,.cls-2,.cls-4{stroke:#666;}.cls-1,.cls-3,.cls-4{stroke-linecap:round;}.cls-1,.cls-2,.cls-3{stroke-width:32px;}.cls-3{stroke:url(#Yellow_Gradient1);}.cls-4{stroke-width:20px;}</style><linearGradient id="Yellow_Gradient1" x1="9.31" y1="272.28" x2="437.23" y2="347.73" gradientUnits="userSpaceOnUse"><stop offset="0" stop-color="#f5ff37"/><stop offset="1" stop-color="#ffa526"/></linearGradient></defs><title>dodo logo no words</title><g id="Layer_2" data-name="Layer 2"><g id="Layer_1-2" data-name="Layer 1"><path class="cls-1" d="M228.35,176.47l20.21-91.94a87.75,87.75,0,1,1,49.18,99.13"/><path class="cls-2" d="M174.5,191.57H103.78a87.69,87.69,0,1,1,86.39-72.13Z"/><path class="cls-3" d="M228.35,176.47,189.61,352.75A87.75,87.75,0,1,1,138,253.33m196.26-6.9A87.78,87.78,0,1,0,422,334.22,87.78,87.78,0,0,0,334.22,246.43Z"/><path class="cls-4" d="M362,334a28,28,0,0,1-56,0"/></g></g></svg>